<!--?xml version="1.0" standalone="no"?-->              <svg id="sw-js-blob-svg" viewBox="0 0 100 100" xmlns="http://www.w3.org/2000/svg">                    <defs>                         <linearGradient id="sw-gradient" x1="0" x2="1" y1="1" y2="0">                            <stop id="stop1" stop-color="rgba(248, 117, 55, 1)" offset="0%"></stop>                            <stop id="stop2" stop-color="rgba(251, 168, 31, 1)" offset="100%"></stop>                        </linearGradient>                    </defs>                <path fill="url(#sw-gradient)" d="M21.9,-23.3C28,-21.1,32.1,-13.7,34.5,-5.3C36.9,3.2,37.7,12.7,33.3,18.2C28.9,23.7,19.3,25.2,11.9,24.2C4.5,23.2,-0.7,19.7,-8,18.5C-15.2,17.3,-24.5,18.4,-31,14.4C-37.5,10.4,-41.2,1.2,-37.4,-4.2C-33.6,-9.6,-22.2,-11.2,-14.7,-13.2C-7.2,-15.1,-3.6,-17.3,2.2,-19.9C8,-22.5,15.9,-25.5,21.9,-23.3Z" width="100%" height="100%" transform="translate(50 50)" stroke-width="0" style="transition: 0.3s;"></path>              </svg>